<mxfile host="app.diagrams.net" modified="2024-03-27T13:32:33.840Z" agent="Mozilla/5.0 (Windows NT 10.0; Win64; x64) AppleWebKit/537.36 (KHTML, like Gecko) Chrome/121.0.0.0 Safari/537.36 OPR/107.0.0.0" version="24.2.0" etag="_W4Q6j-7yIvQp9FlO_wo" type="github">
  <diagram name="Page-1" id="KzmILKrWGlOIT-kQnuWg">
    <mxGraphModel>
      <root>
        <mxCell id="0" />
        <mxCell id="1" parent="0" />
      </root>
    </mxGraphModel>
  </diagram>
</mxfile>
